<svg xmlns="http://www.w3.org/2000/svg" width="42.046" height="58.785" viewBox="0 0 42.046 58.785">
  <g id="Group_187" data-name="Group 187" transform="translate(-982.615 -4783.913)">
    <path id="Path_536" data-name="Path 536" d="M19.793-.087c10.3,0,17.361,9.391,17.361,19.7S18.223,52.7,18.223,52.7.108,28.34.108,18.035,9.488-.087,19.793-.087Z" transform="translate(987.507 4790)" fill="#c2cbc0"/>
    <path id="Path_534" data-name="Path 534" d="M19.793-.087c10.3,0,17.361,9.391,17.361,19.7S18.223,52.7,18.223,52.7.108,28.34.108,18.035,9.488-.087,19.793-.087Z" transform="translate(983.507 4785)" fill="#fff" stroke="#203826" stroke-linejoin="round" stroke-width="2"/>
    <path id="Path_535" data-name="Path 535" d="M7.749.2c3.777,0,6.46,3.716,6.46,7.493s-2.683,6.234-6.46,6.234S.242,11.041.242,7.264,3.972.2,7.749.2Z" transform="translate(994.457 4796)" fill="none" stroke="#63bc1e" stroke-width="4"/>
  </g>
</svg>
