<?xml version="1.0" encoding="utf-8"?>
<!-- Generator: Adobe Illustrator 24.0.0, SVG Export Plug-In . SVG Version: 6.00 Build 0)  -->
<svg version="1.1" id="Calque_1" xmlns="http://www.w3.org/2000/svg" xmlns:xlink="http://www.w3.org/1999/xlink" x="0px" y="0px"
	 viewBox="0 0 121.9 165.7" style="enable-background:new 0 0 121.9 165.7;" xml:space="preserve">
<path fill="currentColor" class="text-green-50" d="M1.8,105.7c-0.3,0.5-0.9,1.1-1.2,1.8c-0.1,0.3-0.2,0.7-0.3,1.1C0.2,109,0,109.5,0,109.8
	c0.1,0.3,0.7,0.6,0.8,1.1c0.1,0.6-0.2,1,0.3,1.4c0.2,0,0.4,0.1,0.6,0.1c0.2,0,0.4-0.2,0.6-0.1c0.2,0.1,0.5,0.4,0.8,0.6
	c0.3,0.2,0.5,0.5,0.9,0.5c0.3,0,0.3-0.4,0.7-0.4c0.1,0.2,0.4,0.3,0.6,0.5c-0.1,0.5,0.3,0.4,0.3,0.8c0.5,0.1,1.1,0.2,1.4,0.7
	c0.3,0.4,0.2,1.1,0.4,1.6c-0.4,0.3-1,0.5-1.3,1c-0.2-0.1-0.3-0.2-0.6-0.1c-0.1,1.6-0.1,3.2-0.6,4.3c-0.2,0.4-0.5,0.8-0.6,1.1
	c-0.2,0.7,0,1.7,0,2.6c0,13.3,0,27.3,0,40.3c39.2,0,78.4,0,117.6,0c0-19.2,0-38.5,0-57.7c-0.8-0.8-1.5-1.9-2.2-2.8
	c-0.4-0.2-1-0.2-1.1-0.5c-0.2-0.4,0.1-0.5,0.2-0.8c-0.9-1-1.7-2.2-3-2.9c-0.9,0.5-2.2,0.6-3.1,1.1c0.9-0.1,1,0.6,0.7,1.1
	c-0.1,0.1-0.7,0-0.8,0.3c0.2,0.3,0.1,0.6,0.2,0.9c0.2,0.5,0.7,0.7,0.7,1.1c-1.3-0.1-2.3-0.1-3.3-0.2c-0.4,0-0.8-0.1-1.1-0.1
	c-0.6,0.1-1,0.8-1.6,0.9c-0.5,0.1-1-0.4-1.4-0.1c-0.1-0.3-0.4-0.6-0.7-0.6c-0.7-0.2-1.2,0.2-1.6,0.3c-0.6,0.1-1.3,0-1.8,0.1
	c-0.4,0.1-0.7,0.3-1,0.4c-0.7-0.2-0.9-0.6-1.7-0.4c-0.3-0.1-0.5-0.6-0.9-0.6c-0.4-0.1-1.2,0.5-1.6,0.6c-0.3,0.1-0.2-0.1-0.4,0.1
	c-0.4,0.3-0.2,0.5-0.3,0.9c-0.1,0.3-0.3,0.5-0.3,0.8c-0.8,0.1-1.8,0.2-2.8,0.1c-0.5-0.4-1.2-0.7-2.1-0.9c-0.5-0.1-1.2-0.2-1.6-0.1
	c-0.8,0.1-2.2,0.7-2.3,1.3c0,0.1,0,0.6,0,0.8c0.1,0.4,0.4,0.8,0.2,1.3c-1,0.1-1.2-0.5-1.5-1.1c-1.1-0.1-1.7-0.8-2.5-1.2
	c0.1-1-0.1-1.8-0.3-2.6c-0.2-0.3-0.6-0.5-0.7-0.9c-0.1-0.4,0.1-0.8,0-1.2c0-0.3-0.2-0.5-0.3-0.8c-0.4-0.9-0.7-1.7-1.1-2.3
	c-0.7,0-1.4-0.7-2.2-0.6c-0.7,0.1-1.1,0.7-1.6,0.7c-0.2-0.3-0.1-0.8-0.1-0.9c-0.8-0.4-1.7-0.5-2.2-1.2c-0.3-0.5-0.4-1.1-0.6-1.7
	c0.5-0.1,0.7-0.3,0.9-0.6c0.3-0.6,0-1.6-0.3-2c-0.2-0.3-0.7-0.2-1-0.6c-0.2-0.2-0.2-0.4-0.2-0.8c-0.3,0-0.6,0-0.7-0.1
	c-0.4-1.3-1.4-1.9-2.1-2.8c-0.6-0.8-0.9-1.6-1.4-2.5c-0.1-1.7-1.1-2.4-0.9-4.4c-0.4,0-0.6,0.1-0.9-0.1c0.2-0.4,0.3-0.7,0.4-1.2
	c-1.2-0.8-2.3-2.7-4.3-2.5c-0.4,1.3-1.5,2.1-2.3,3c-0.9,0-1.3,0.5-2.1,0.6c-0.2,0.3-0.4,0.6-0.4,1.1c-0.5,0.1-0.9,0.4-1.3,0.6
	c-0.9-0.5-1.9-1.6-2.8-2.1c-0.4-0.2-1.3-0.4-1.4-0.9c0-0.2,0.1-0.4,0.1-0.6c0.1-0.2,0.1-0.6,0.2-0.8c0.1-0.3,0.5-0.4,0.6-0.7
	c0.1-0.5-0.2-0.7-0.5-1.3C53.4,77,53,76.9,53,76.4c0-0.4,0.4-0.6,0.4-1c0.2,0.3,0.4-0.1,0.6-0.2c0.5-0.3,1.3-0.3,1.7-0.6
	c0.3-0.2,0.3-0.4,0.5-0.7c-0.1-0.3-0.4-0.4-0.5-0.9c-0.1-0.4,0-0.9-0.1-1.2c-0.2-0.7-1.2-1-1.4-1.9c-0.1-0.3,0.1-0.8,0-1.1
	c-0.1-0.5-0.9-0.8-0.7-1.4c0.4-0.1,0.9-0.1,1.4-0.1c0-0.7,0.2-1.6,0.2-2.1c0.6-0.7,0.5-2.1,0.8-3.2c0.1-0.5,0.5-0.9,0.5-1.4
	c0-0.4-0.2-0.8-0.3-1.1c1.3-0.4,1.4-2.3,1.4-3.7c-0.4-0.5-0.9-0.2-1.4-0.1c-0.2,0-0.4,0-0.6,0.1c-0.5,0.2-0.7,0.6-1.1,0.6
	c-0.3,0-0.6-0.2-0.9-0.2c-0.6-0.1-1.1,0.2-1.8,0c0-0.3-0.2-0.4-0.3-0.5c0.1-1-0.2-1.6-0.8-1.6c-0.6,0-1.2,1-1.9,0.6
	c0.1-0.3-0.3-0.5-0.2-0.6c0.2-0.2,0.2-0.5,0.1-0.8c-0.2-0.3-0.7-0.3-1-0.5c-0.3-0.2-0.6-0.6-1-0.4c-0.1-0.7-1-0.8-1.2-1.6
	c-0.1-0.3,0-0.7-0.1-1c-0.2-0.7-0.7-0.9-1.1-1.4c-0.3,0.1-0.6,0.1-0.9-0.1c-0.6-0.3-0.3-0.6-0.6-1.1c-0.2-0.5-0.8-0.9-1.2-1.3
	c-0.1-0.1-0.1-0.2-0.2-0.4c-0.3-0.3-0.6-0.8-0.9-1c-0.3-0.2-0.7-0.2-0.9-0.4c-0.1-0.1-0.1-0.3-0.2-0.4c-0.3-0.4-0.7-0.6-1-1
	c0-0.5-0.2-0.8-0.4-1c-0.4-0.4-1.1-0.1-1.6-0.2c-0.2,0-0.6-0.3-0.9-0.4c-0.3-0.1-0.7-0.2-0.9-0.3c-0.8-0.4-1.3-1.2-2-1.7
	c-0.3-0.2-0.7-0.4-1.1-0.6c-0.7-0.4-1.2-0.8-2.1-1c0.3-0.2,0.6-0.2,0.8-0.5c0.7-0.1,1.3-0.2,1.6-0.6c-0.4-0.2-0.8-0.3-1.3-0.4
	c0.1-0.4-0.3-0.5-0.1-0.7c-0.5,0.1-0.6-0.3-0.9-0.4c0.4,0.2,0.3-0.4,0.4-0.6c0.1-0.3,0.4-0.5,0.4-0.8c0.1-0.5-0.2-0.8-0.4-1.2
	c0-0.2,0-0.5,0-0.7c-0.6-0.7-1.3-1.4-1.9-2.1c-0.2-0.2-0.5-0.5-0.6-0.7c-0.1-0.2,0.1-0.7-0.2-0.9c-0.2-0.1-0.5-0.3-0.9-0.2
	c-0.8-1.2-1.8-2.1-2.5-3.4C23.5,16.4,23.4,7.8,23.6,0C17,0,9.8,0,3.9,0c0.3,5.9-0.3,12.7-0.1,18.9c0,0.7,0,1.4,0,2.1
	C3.9,22,4.1,23.1,4,24.1c0,0.3-0.2,0.7-0.2,1.1c-0.1,1.5,0,3,0,4.6c0,1.5-0.1,3.2,0,4.6c0,0.5,0.2,0.9,0.2,1.4
	c0.2,3.1,0,6.3-0.1,9.5c-0.2,2.7,0,5.5,0,8.3c0,2.8-0.1,5.6,0.1,8.4c-0.1,0.4-0.6,0.3-0.5,0.9C3.5,63,4,62.9,4.1,63.2
	c0.4,1,1.4,1.9,1.2,3.3c0.3,0.3,0.6,0.5,0.8,0.9c-0.3,0.4-0.4,0.9-0.6,1.3c-0.1,0.2-0.1,0.1-0.1,0.4c0,0.4,0.3,0.7,0.5,1.1
	c0.2,0.4,0.3,0.9,0.5,1.3c0.1,0.2,0.3,0.4,0.5,0.6c0.8,1.3,2.3,2.4,3.1,3.3c0.8,0.1,1.2,0.7,1.9,1c0.5,0.2,1.1,0.4,1.4,0.6
	c0.2,0.2,0.2,0.6,0.6,0.7c-0.1,1.2,0.6,1.5,1,2.2c0,0.5-0.1,0.8-0.1,1.3c-0.6,0.8-1.3,1.4-1.4,2.7c-0.5,0.3-0.6,0.9-0.9,1.4
	c-0.2,0.3-0.5,0.5-0.6,0.8c-0.2,0.3-0.4,0.6-0.6,0.9c-0.1,0.3-0.1,0.8-0.2,1.1c-0.1,0.5-0.5,0.9-0.6,1.4c-0.1,0.5-0.2,1.1-0.4,1.6
	c-0.3,0.6-0.8,1.2-1.2,1.7c-0.4,0.6-0.7,1.2-1.2,1.7c-0.2,0.7,0.1,1.5,0.1,2.2c0,0.6-0.3,1-0.7,1.5c-0.8,1.1-1.9,2.5-3.1,2.6
	c-0.1,0.3-0.3,0.5-0.6,0.6c-0.2,1-0.9,1.9-1.2,2.8c-0.1,0.1,0,0.3,0,0.5c0,0.1-0.2,0.3-0.3,0.4C1.8,105.3,1.9,105.6,1.8,105.7z"/>
</svg>
