<svg xmlns="http://www.w3.org/2000/svg" width="33.001" height="33" viewBox="0 0 33.001 33">
  <path id="BarChart" d="M-1627.625,710a1.875,1.875,0,0,1-1.876-1.875v-26.25a1.875,1.875,0,0,1,1.876-1.875h3.749a1.875,1.875,0,0,1,1.876,1.875v26.25a1.875,1.875,0,0,1-1.876,1.875Zm-11.25,0a1.875,1.875,0,0,1-1.876-1.875V689.375a1.875,1.875,0,0,1,1.876-1.875h3.749a1.875,1.875,0,0,1,1.876,1.875v18.751a1.875,1.875,0,0,1-1.876,1.875Zm-11.25,0a1.875,1.875,0,0,1-1.876-1.875v-11.25a1.876,1.876,0,0,1,1.876-1.876h3.749a1.876,1.876,0,0,1,1.876,1.876v11.25a1.875,1.875,0,0,1-1.876,1.875Z" transform="translate(1653.5 -678.5)" fill="none" stroke="#63bc1e" stroke-linecap="round" stroke-linejoin="round" stroke-width="3"/>
</svg>
