<svg xmlns="http://www.w3.org/2000/svg" width="33" height="33" viewBox="0 0 33 33">
  <path id="Desktop" d="M13,26.75v1.678a5,5,0,0,1-1.465,3.537L10.5,33h15l-1.035-1.035A5,5,0,0,1,23,28.428V26.75m10-20V23a3.75,3.75,0,0,1-3.75,3.75H6.75A3.75,3.75,0,0,1,3,23V6.75m30,0A3.75,3.75,0,0,0,29.25,3H6.75A3.75,3.75,0,0,0,3,6.75m30,0V18a3.75,3.75,0,0,1-3.75,3.75H6.75A3.75,3.75,0,0,1,3,18V6.75" transform="translate(-1.5 -1.5)" fill="none" stroke="#63bc1e" stroke-linecap="round" stroke-linejoin="round" stroke-width="3"/>
</svg>
