<svg xmlns="http://www.w3.org/2000/svg" width="33.505" height="35.002" viewBox="0 0 33.505 35.002">
  <path id="FingerPrint" d="M18.882,17.118a31.616,31.616,0,0,1-4.858,16.89m-6.071-3.6c.031-.053.063-.1.1-.157a24.557,24.557,0,0,0,3.774-13.132,7.059,7.059,0,1,1,14.118,0,39.092,39.092,0,0,1-.359,5.294M21.846,34.489a38.613,38.613,0,0,0,2.632-6.783m6.775,2A45.916,45.916,0,0,0,33,17.118,14.121,14.121,0,0,0,11.824,4.889M3,24.819a17.576,17.576,0,0,0,1.765-7.7,14.053,14.053,0,0,1,1.889-7.059" transform="translate(-0.995 -1.5)" fill="none" stroke="#63bc1e" stroke-linecap="round" stroke-linejoin="round" stroke-width="3"/>
</svg>
