<svg xmlns="http://www.w3.org/2000/svg" width="33" height="35.571" viewBox="0 0 33 35.571">
  <path id="ReceiptTax" d="M13.571,23.9,26.429,11.048M14.643,12.119h.021M25.357,22.833h.021M35,35.571V7.286A4.286,4.286,0,0,0,30.714,3H9.286A4.286,4.286,0,0,0,5,7.286V35.571l7.5-4.286L20,35.571l7.5-4.286,2.787,1.593ZM15.714,12.119a1.071,1.071,0,1,1-1.071-1.071A1.071,1.071,0,0,1,15.714,12.119ZM26.429,22.833a1.071,1.071,0,1,1-1.071-1.071A1.072,1.072,0,0,1,26.429,22.833Z" transform="translate(-3.5 -1.5)" fill="none" stroke="#63bc1e" stroke-linecap="round" stroke-linejoin="round" stroke-width="3"/>
</svg>
