<svg xmlns="http://www.w3.org/2000/svg" width="113.003" height="107.41" viewBox="0 0 113.003 107.41">
	<g id="Group_58" data-name="Group 58" transform="translate(-113.499 -225.464)" fill="none">
		<path id="Path_92" data-name="Path 92" d="M2509.071-80.312l11.77-11.77,11.77,11.77,11.77-11.77,11.77,11.77,11.77-11.77,11.77,11.77,11.77-11.77,11.77,11.77L2615-92.083" transform="translate(-2392.036 387.509)" stroke="currentColor" stroke-linecap="round" stroke-linejoin="round" stroke-width="5" opacity="0.428" />
		<path id="Path_93" data-name="Path 93" d="M2509.071-80.312l11.77-11.77,11.77,11.77,11.77-11.77,11.77,11.77,11.77-11.77,11.77,11.77,11.77-11.77,11.77,11.77L2615-92.083" transform="translate(-2392.036 365.367)" stroke="currentColor" stroke-linecap="round" stroke-linejoin="round" stroke-width="5" opacity="0.428" />
		<path id="Path_94" data-name="Path 94" d="M2509.071-80.312l11.77-11.77,11.77,11.77,11.77-11.77,11.77,11.77,11.77-11.77,11.77,11.77,11.77-11.77,11.77,11.77L2615-92.083" transform="translate(-2392.036 343.225)" stroke="currentColor" stroke-linecap="round" stroke-linejoin="round" stroke-width="5" opacity="0.428" />
		<path id="Path_95" data-name="Path 95" d="M2509.071-80.312l11.77-11.77,11.77,11.77,11.77-11.77,11.77,11.77,11.77-11.77,11.77,11.77,11.77-11.77,11.77,11.77L2615-92.083" transform="translate(-2392.036 321.083)" stroke="currentColor" stroke-linecap="round" stroke-linejoin="round" stroke-width="5" opacity="0.428" />
		<path id="Path_96" data-name="Path 96" d="M2509.071-80.312l11.77-11.77,11.77,11.77,11.77-11.77,11.77,11.77,11.77-11.77,11.77,11.77,11.77-11.77,11.77,11.77L2615-92.083" transform="translate(-2392.036 409.652)" stroke="currentColor" stroke-linecap="round" stroke-linejoin="round" stroke-width="5" opacity="0.428" />
	</g>
</svg>
