<svg xmlns="http://www.w3.org/2000/svg" xmlns:xlink="http://www.w3.org/1999/xlink" width="163.462" height="194.769" viewBox="0 0 163.462 194.769">
  <defs>
    <linearGradient id="linear-gradient" x1="0.5" x2="0.5" y2="1" gradientUnits="objectBoundingBox">
      <stop offset="0" stop-color="#bff27d"/>
      <stop offset="1" stop-color="#63bc1e"/>
    </linearGradient>
  </defs>
  <g id="Group_181" data-name="Group 181" transform="translate(-575.081 -567.243)">
    <g id="Group_115" data-name="Group 115" transform="translate(613.253 568.193)">
      <g id="Group_109" data-name="Group 109" transform="translate(38.048 9.948)">
        <rect id="Rectangle_39" data-name="Rectangle 39" width="44.57" height="6.452" transform="translate(19.567 161.958)" fill="#fff" stroke="#203826" stroke-linecap="round" stroke-linejoin="round" stroke-width="2"/>
        <rect id="Rectangle_45" data-name="Rectangle 45" width="34.786" height="6.452" transform="translate(14.132 94.852)" fill="#fff" stroke="#203826" stroke-linecap="round" stroke-linejoin="round" stroke-width="2"/>
        <rect id="Rectangle_41" data-name="Rectangle 41" width="34.786" height="6.452" transform="translate(6.522 26.455)" fill="#fff" stroke="#203826" stroke-linecap="round" stroke-linejoin="round" stroke-width="2"/>
        <path id="Path_248" data-name="Path 248" d="M-2.39,0H-10L22.612,180.67h7.61Z" transform="translate(41.525)" fill="#fff" stroke="#203826" stroke-linecap="round" stroke-linejoin="round" stroke-width="2"/>
        <path id="Path_249" data-name="Path 249" d="M-2.39,0H-10L11.741,180.67h7.61Z" transform="translate(10)" fill="#fff" stroke="#203826" stroke-linecap="round" stroke-linejoin="round" stroke-width="2"/>
      </g>
      <g id="Group_110" data-name="Group 110" transform="translate(0 9.948)">
        <rect id="Rectangle_37" data-name="Rectangle 37" width="44.027" height="6.452" transform="translate(6.522 136.148)" fill="#fff" stroke="#203826" stroke-linecap="round" stroke-linejoin="round" stroke-width="2"/>
        <rect id="Rectangle_38" data-name="Rectangle 38" width="44.027" height="6.452" transform="translate(6.522 161.958)" fill="#fff" stroke="#203826" stroke-linecap="round" stroke-linejoin="round" stroke-width="2"/>
        <path id="Path_511" data-name="Path 511" d="M0,0S13.086.428,24.093.428,44.027,0,44.027,0V6.452s-9.808.506-20.815.506S0,6.452,0,6.452Z" transform="translate(9.784 111.628)" fill="#fff" stroke="#203826" stroke-linecap="round" stroke-width="2"/>
        <rect id="Rectangle_40" data-name="Rectangle 40" width="34.786" height="6.452" transform="translate(17.393 87.109)" fill="#fff" stroke="#203826" stroke-linecap="round" stroke-linejoin="round" stroke-width="2"/>
        <path id="Path_510" data-name="Path 510" d="M0,.031s12.632-.2,21.329-.2,13.457.2,13.457.2V6.483s-7.97-.248-16.667-.248S0,6.483,0,6.483Z" transform="translate(16.306 61.268)" fill="#fff" stroke="#203826" stroke-linecap="round" stroke-width="2"/>
        <path id="Path_509" data-name="Path 509" d="M0,0S10.806.572,19.5.572,34.786,0,34.786,0V6.452S27.427,6.8,18.73,6.8,0,6.452,0,6.452Z" transform="translate(19.567 36.779)" fill="#fff" stroke="#203826" stroke-linecap="round" stroke-width="2"/>
        <path id="Path_508" data-name="Path 508" d="M0,.109S9.227-.61,17.924-.61,34.786.109,34.786.109V6.561s-8,.153-16.695.153S0,6.561,0,6.561Z" transform="translate(22.829 12.151)" fill="#fff" stroke="#203826" stroke-linecap="round" stroke-width="2"/>
        <path id="Path_248-2" data-name="Path 248" d="M11.741,0h7.61S14.931,49.325,9.5,94.493-2.39,180.67-2.39,180.67H-10s6.969-45.661,12.4-90.829S11.741,0,11.741,0Z" transform="translate(10)" fill="#fff" stroke="#203826" stroke-linecap="round" stroke-linejoin="round" stroke-width="2"/>
        <path id="Path_249-2" data-name="Path 249" d="M10.871,0h7.61L7.61,180.67H0Z" transform="translate(44.57)" fill="#fff" stroke="#203826" stroke-linecap="round" stroke-linejoin="round" stroke-width="2"/>
      </g>
      <path id="Path_506" data-name="Path 506" d="M.029.054S15.321-.3,29.161-.3s26.23.354,26.23.354a37.149,37.149,0,0,1,.23,4.181c0,2.357-.23,5.247-.23,5.247H.029A36.263,36.263,0,0,1-.312,4.822,39.141,39.141,0,0,1,.029.054Z" transform="translate(21.841 0.35)" fill="#fff" stroke="#203826" stroke-linecap="round" stroke-linejoin="round" stroke-width="2"/>
      <path id="Path_507" data-name="Path 507" d="M50.76,8.623s.165-2.77.165-5.078S50.76-.607,50.76-.607" transform="translate(4.747 0.607)" fill="none" stroke="#203826" stroke-width="2"/>
    </g>
    <g id="Group_162" data-name="Group 162" transform="translate(640.298 640.467)">
      <path id="Path_447" data-name="Path 447" d="M.2.231c.9-.9,45.1-1.713,46.811,0s.775,46.036,0,46.81S1.533,48.379.2,47.042-.7,1.131.2.231Z" transform="translate(0.651 71.976)" fill="#fff" stroke="#203826" stroke-width="2"/>
      <path id="Path_448" data-name="Path 448" d="M-.026,0H7.1s.579,12.251,0,12.725-2.959-1.991-3.533-1.991-3.11,2.389-3.6,1.991S-.026,0-.026,0Z" transform="translate(20.724 70.773)" fill="#fff" stroke="#203826" stroke-linejoin="round" stroke-width="2"/>
      <path id="Path_449" data-name="Path 449" d="M.216,0H7.345s.579,3,0,3.252-2.959-1.04-3.533-1.04S.7,3.459.216,3.252.216,0,.216,0Z" transform="translate(28.083 118.233) rotate(180)" fill="#fff" stroke="#203826" stroke-linejoin="round" stroke-width="2"/>
      <path id="Path_447-2" data-name="Path 447" d="M.2.231c.9-.9,45.1-1.713,46.811,0s.775,46.036,0,46.81S1.533,48.379.2,47.042-.7,1.131.2.231Z" transform="translate(49.273 72.366)" fill="#fff" stroke="#203826" stroke-width="2"/>
      <path id="Path_448-2" data-name="Path 448" d="M-.026,0H7.1s.579,16.175,0,16.8-2.959-2.629-3.533-2.629S.459,17.325-.026,16.8-.026,0-.026,0Z" transform="translate(69.345 72.256)" fill="#fff" stroke="#203826" stroke-linejoin="round" stroke-width="2"/>
      <path id="Path_449-2" data-name="Path 449" d="M.216,0H7.345s.579,5.75,0,6.224S4.386,4.233,3.812,4.233.7,6.621.216,6.224.216,0,.216,0Z" transform="translate(76.704 119.717) rotate(180)" fill="#fff" stroke="#203826" stroke-linejoin="round" stroke-width="2"/>
      <path id="Path_447-3" data-name="Path 447" d="M.2.231c.9-.9,45.1-1.713,46.811,0s.775,46.036,0,46.81S1.533,48.379.2,47.042-.7,1.131.2.231Z" transform="translate(35.504 21.625)" fill="#fff" stroke="#203826" stroke-width="2"/>
      <path id="Path_448-3" data-name="Path 448" d="M-.026,0H7.1s.579,16.175,0,16.8-2.959-2.629-3.533-2.629S.459,17.325-.026,16.8-.026,0-.026,0Z" transform="translate(55.576 21.515)" fill="#fff" stroke="#203826" stroke-linejoin="round" stroke-width="2"/>
      <path id="Path_449-3" data-name="Path 449" d="M.216,0H7.345s.579,5.75,0,6.224S4.386,4.233,3.812,4.233.7,6.621.216,6.224.216,0,.216,0Z" transform="translate(62.936 68.976) rotate(180)" fill="#fff" stroke="#203826" stroke-linejoin="round" stroke-width="2"/>
      <path id="Path_452" data-name="Path 452" d="M0,0H4.622S5.777,11.723,5.777,23.695,4.622,47.886,4.622,47.886H0Z" transform="translate(48.254 69.473) rotate(90)" fill="#203826" opacity="0.25"/>
      <path id="Path_453" data-name="Path 453" d="M0,0H4.3S5.38,11.416,5.38,23.073,4.3,46.631,4.3,46.631H0Z" transform="translate(96.231 72.753) rotate(90)" fill="#203826" opacity="0.25"/>
      <path id="Union_51" data-name="Union 51" d="M13.881,38.124V28.8c-6.716-.112-12.5-.434-13.3-.91C-1.329,26.743,1.868,4.54,4.47,1.616s26.471-1.222,28.009,0,7.154,24.874,3.891,26.27c-1.5.641-8.774.934-16.385.953a31.012,31.012,0,0,0-.2,3.315,28.576,28.576,0,0,0,.687,5.971Z" transform="translate(10.882 15.922)" fill="#203826" opacity="0.25"/>
      <path id="Path_491" data-name="Path 491" d="M-.348,17.426V0H-5.932V17.426Z" transform="translate(28.406 40.084)" fill="#fff" stroke="#203826" stroke-width="2"/>
      <path id="Path_497" data-name="Path 497" d="M4.109-.688c2.824-2.8,28.745-1.171,30.415,0s7.769,23.844,4.224,25.182-36.791,1.095-38.864,0S1.284,2.115,4.109-.688Z" transform="translate(5.72 15.66)" fill="#fff" stroke="#203826" stroke-width="2"/>
      <path id="Path_498" data-name="Path 498" d="M18.907-1.228c-1.554-1.826-15.811-.763-16.73,0S-2.1,14.306-.146,15.178s20.237.713,21.377,0S20.461.6,18.907-1.228Z" transform="translate(14.85 54.338)" fill="#fff" stroke="#203826" stroke-width="2"/>
    </g>
    <g id="Group_86" data-name="Group 86" transform="translate(576.09 685.988)">
      <path id="Union_1" data-name="Union 1" d="M29.184,69.919A72.363,72.363,0,0,0,30,58.569c0-2.63-.126-5.576-.278-8.188-14.616.066-27.728-.183-28.394-.845C-.187,48.032-.4,3.37.668,2.023S68.036-.927,69.487.66s2.266,46.5.76,48.13c-.67.724-14.1,1.249-28.933,1.477C41.2,52.83,41.1,55.731,41.1,58.35a99.686,99.686,0,0,0,.63,11.569Z" transform="translate(5.52 5.52)" fill="#203826" opacity="0.196"/>
      <path id="Path_119" data-name="Path 119" d="M0,0H12.547s-.63,10.183-.63,18.168.63,13.77.63,13.77H0A102.161,102.161,0,0,0,.817,18.429C.817,10.444,0,0,0,0Z" transform="translate(29.183 43.086)" fill="#fff" stroke="#203826" stroke-width="2"/>
      <path id="Path_118" data-name="Path 118" d="M.082.249C1.154-1.1,67.451-2.7,68.9-1.114s2.266,46.5.76,48.13-67.4,2.252-68.919.747S-.989,1.6.082.249Z" transform="translate(0.585 1.774)" fill="#fff" stroke="#203826" stroke-width="2"/>
      <path id="Path_122" data-name="Path 122" d="M.082-.194C1.154-1.246,67.451-2.5,68.9-1.258s2.266,36.316.76,37.585S2.258,38.085.743,36.91-.989.858.082-.194Z" transform="translate(0.585 7.294)" fill="#fff" stroke="#203826" stroke-width="2"/>
      <path id="Union_2" data-name="Union 2" d="M.529,21.064c-.584-.193-.318-1.673-.522-5.808-.153-3.089,2.113-5.209,5.288-6.083A7.353,7.353,0,0,1,3.583,4.664,4.387,4.387,0,0,1,8.328,0a5.6,5.6,0,0,1,5.561,5.3A6.169,6.169,0,0,1,12.3,9.377c3.085,1.173,5.239,3.716,5.239,5.88,0,1.749.5,5.285,0,5.808-.2.208-2.855.281-6.014.281C6.772,21.345.881,21.18.529,21.064Z" transform="translate(9.232 14.283)" fill="url(#linear-gradient)"/>
      <path id="Path_499" data-name="Path 499" d="M1100.91,692.959s8.012-.433,15.036-.433,13.06.433,13.06.433" transform="translate(-1066.275 -676.778)" fill="none" stroke="#203826" stroke-linecap="round" stroke-width="2"/>
      <path id="Path_500" data-name="Path 500" d="M0,.033s2.355-.074,6.2,0S14.86.365,17.822.365c6.227,0,7.088-.332,7.088-.332" transform="translate(59.543 21.805) rotate(180)" fill="none" stroke="#203826" stroke-linecap="round" stroke-width="2"/>
      <path id="Path_501" data-name="Path 501" d="M0,.339s1.373.074,3.611,0S8.661.006,10.387.006c3.629,0,3.177-.083,4.21,0" transform="translate(34.634 27.457)" fill="none" stroke="#203826" stroke-linecap="round" stroke-width="2"/>
      <path id="Path_502" data-name="Path 502" d="M0,.339a8.3,8.3,0,0,0,1.533,0C2.483.264,3.677.006,4.409.006A10.1,10.1,0,0,1,6.2.006" transform="translate(54.333 27.457)" fill="none" stroke="#203826" stroke-linecap="round" stroke-width="2"/>
      <path id="Path_503" data-name="Path 503" d="M0,0H2.671A14.75,14.75,0,0,0,5.589,0" transform="translate(40.223 33.819) rotate(180)" fill="none" stroke="#203826" stroke-linecap="round" stroke-width="2"/>
      <path id="Path_504" data-name="Path 504" d="M0,0H2.671A14.75,14.75,0,0,0,5.589,0" transform="translate(51.477 33.819) rotate(180)" fill="none" stroke="#203826" stroke-linecap="round" stroke-width="2"/>
      <path id="Path_505" data-name="Path 505" d="M0,0H2.671A14.75,14.75,0,0,0,5.589,0" transform="translate(62.731 33.819) rotate(180)" fill="none" stroke="#203826" stroke-linecap="round" stroke-width="2"/>
    </g>
  </g>
</svg>
