<svg xmlns="http://www.w3.org/2000/svg" width="152.626" height="25.75" viewBox="0 0 152.626 25.75">
	<g id="Group_186" data-name="Group 186" transform="translate(-968.976 -5005.624)">
		<path id="Path_526" data-name="Path 526" d="M511.913,0l4.314,8.119,8.818,1.726-6.158,6.727,1.14,9.178-8.115-3.942-8.1,3.942,1.121-9.178L498.8,9.845l8.8-1.726Z" transform="translate(596.556 5005.624)" fill="#cbd8ca" />
		<g id="Group_166" data-name="Group 166" transform="translate(961.144 4999.144)">
			<g id="Group_148" data-name="Group 148" transform="translate(7.832 6.48)">
				<g id="five-star" transform="translate(0 0)">
					<path id="Union_22" data-name="Union 22" d="M132.538,16.571,126.38,9.845,135.2,8.12,139.512,0l4.368,8.12V23.877l-4.368-2.07L131.4,25.749Zm-24.63,5.236-8.1,3.942,1.121-9.178L94.795,9.845l8.8-1.725L107.908,0l4.314,8.12,8.818,1.725-6.158,6.726,1.141,9.178Zm-31.585,0-8.115,3.942,1.14-9.178L63.19,9.845,72.008,8.12,76.322,0l4.295,8.12,8.819,1.725L83.3,16.571l1.121,9.178Zm-31.6,0L36.6,25.749l1.14-9.178L31.6,9.845,40.4,8.12,44.717,0l4.314,8.12L57.85,9.845l-6.158,6.726,1.14,9.178Zm-31.6,0-8.1,3.942,1.121-9.178L0,9.845,8.818,8.12,13.113,0l4.313,8.12,8.819,1.725-6.138,6.726,1.121,9.178Z" transform="translate(0 0)" fill="#ffce00" />
				</g>
				<g id="five-star-2" data-name="five-star" transform="translate(0 0.001)">
					<path id="Path_372" data-name="Path 372" d="M13.113,0l4.314,8.119,8.818,1.726-6.138,6.727,1.121,9.178-8.115-3.942-8.1,3.942,1.121-9.178L0,9.845,8.818,8.119Z" fill="none" />
					<path id="Path_373" data-name="Path 373" d="M179.413,0l4.314,8.119,8.818,1.726-6.157,6.727,1.14,9.178-8.115-3.942L171.3,25.749l1.14-9.178L166.3,9.845l8.8-1.726Z" transform="translate(-134.695)" fill="none" />
					<path id="Path_374" data-name="Path 374" d="M345.632,0l4.3,8.119,8.818,1.726-6.138,6.727,1.121,9.178-8.1-3.942-8.115,3.942,1.14-9.178L332.5,9.845l8.818-1.726Z" transform="translate(-269.31)" fill="none" />
					<path id="Path_375" data-name="Path 375" d="M511.913,0l4.314,8.119,8.818,1.726-6.158,6.727,1.14,9.178-8.115-3.942-8.1,3.942,1.121-9.178L498.8,9.845l8.8-1.726Z" transform="translate(-404.005)" fill="none" />
					<path id="Path_376" data-name="Path 376" d="M678.132,0l4.314,8.119,8.8,1.726-6.139,6.727,1.14,9.178-8.115-3.942-8.115,3.942,1.14-9.178L665,9.845l8.818-1.726Z" transform="translate(-538.62)" fill="none" />
				</g>
			</g>
		</g>
	</g>
</svg>
