<svg xmlns="http://www.w3.org/2000/svg" width="86.072" height="65.731" viewBox="0 0 86.072 65.731">
  <g id="Group_165" data-name="Group 165" transform="translate(-10.448 8.49)">
    <path id="Path_382" data-name="Path 382" d="M76.865-4.515C75.742-6.565-.843-6.467-2.7-4.515s-.43,42.461,0,44.153c.23.9,41.423.891,61.866.8,0,0,5.386,11.809,6.9,11.8s4.346-11.9,4.346-11.9c6.211-.18,6.184-.418,6.447-.7C78.03,38.41,77.989-2.466,76.865-4.515Z" transform="translate(18.797 5.008)" fill="#203826" opacity="0.25"/>
    <g id="Group_149" data-name="Group 149" transform="translate(11.446 -7.49)">
      <path id="Path_379" data-name="Path 379" d="M76.865-4.515C75.742-6.565-.843-6.467-2.7-4.515s-.43,42.461,0,44.153c.23.9,41.423.891,61.866.8,0,0,5.386,11.809,6.9,11.8s4.346-11.9,4.346-11.9c6.211-.18,6.184-.418,6.447-.7C78.03,38.41,77.989-2.466,76.865-4.515Z" transform="translate(3.623 6.016)" fill="#fff" stroke="#203826" stroke-width="2"/>
      <line id="Line_14" data-name="Line 14" x1="25.406" transform="translate(48.96 8.835)" fill="none" stroke="#63bc1e" stroke-linecap="round" stroke-width="4"/>
      <line id="Line_15" data-name="Line 15" x1="10.1" transform="translate(31.278 8.835)" fill="none" stroke="#63bc1e" stroke-linecap="round" stroke-width="4"/>
      <line id="Line_16" data-name="Line 16" x1="10.1" transform="translate(13.588 8.835)" fill="none" stroke="#63bc1e" stroke-linecap="round" stroke-width="4"/>
      <path id="Path_380" data-name="Path 380" d="M18.722,0H0" transform="translate(55.644 16.027)" fill="none" stroke="#63bc1e" stroke-linecap="round" stroke-width="4"/>
      <line id="Line_18" data-name="Line 18" x1="22.997" y2="0.011" transform="translate(25.466 16.027)" fill="none" stroke="#63bc1e" stroke-linecap="round" stroke-width="4"/>
      <line id="Line_19" data-name="Line 19" x1="10.1" transform="translate(7.78 16.038)" fill="none" stroke="#63bc1e" stroke-linecap="round" stroke-width="4"/>
      <line id="Line_20" data-name="Line 20" x1="10.1" transform="translate(64.266 23.219)" fill="none" stroke="#63bc1e" stroke-linecap="round" stroke-width="4"/>
      <path id="Path_381" data-name="Path 381" d="M18.722,0H0" transform="translate(37.963 23.231)" fill="none" stroke="#63bc1e" stroke-linecap="round" stroke-width="4"/>
      <line id="Line_21" data-name="Line 21" x1="3.268" transform="translate(71.099 38.207)" fill="none" stroke="#63bc1e" stroke-linecap="round" stroke-width="4"/>
      <line id="Line_22" data-name="Line 22" x1="10.429" transform="translate(56.775 38.207)" fill="none" stroke="#63bc1e" stroke-linecap="round" stroke-width="4"/>
    </g>
  </g>
</svg>
