<svg xmlns="http://www.w3.org/2000/svg" xmlns:xlink="http://www.w3.org/1999/xlink" width="72.483" height="53.184" viewBox="0 0 72.483 53.184"><defs><linearGradient id="linear-gradient" x1="0.983" y1="0.08" x2="-0.066" y2="1.145" gradientUnits="objectBoundingBox"><stop offset="0" stop-color="#bff27d"/><stop offset="1" stop-color="#63bc1e"/></linearGradient></defs><g id="Group_194" data-name="Group 194" transform="translate(-592.348 -3671.21)"><path id="Path_540" data-name="Path 540" d="M-.184-.212C1-1.388,17.337-1.185,34.583-1.185s33.589.053,34.214.973.946,48.454,0,49.391S1.046,50.4-.184,49.179-1.371.964-.184-.212Z" transform="translate(594.439 3673.403)" fill="#fff" stroke="#203826" stroke-width="2"/><path id="Path_44" data-name="Path 44" d="M13.372,38.586c-1.74,0-3.771-3.172-4.211-5.294s11.817-9.355,15.124-9.513,11.079,7.237,13.383,4.363C40.226,24.954,63.449,6.149,66.059,6.8c1.758.438,2.6,2.476,2.955,3.759a1.1,1.1,0,0,1-.673,1.33C62.022,14.3,47.606,26.125,38.964,35.441c-2.7,2.915-10.551-4.622-13.792-4.5s-10.059,7.642-11.8,7.642" transform="translate(587.591 3673.576)" fill="url(#linear-gradient)"/><path id="Path_544" data-name="Path 544" d="M-.026-.038c.286-.286,8.1-.216,8.311,0s0,11.635,0,11.635H-.026S-.312.248-.026-.038Z" transform="translate(600.929 3711.47)" fill="none" stroke="#203826" stroke-width="2"/><path id="Path_543" data-name="Path 543" d="M-.014-.041c.157-.272,8.046-.265,8.311,0s0,21.608,0,21.608H-.014S-.171.231-.014-.041Z" transform="translate(615.877 3701.499)" fill="none" stroke="#203826" stroke-width="2"/><path id="Path_542" data-name="Path 542" d="M-.027-.037c.3-.3,8.138-.173,8.311,0s0,27.426,0,27.426H-.027S-.326.263-.027-.037Z" transform="translate(630.85 3695.677)" fill="none" stroke="#203826" stroke-width="2"/><path id="Path_541" data-name="Path 541" d="M-.028-.11C.28-.418,7.68-1.154,8.283-.11s0,35.737,0,35.737H-.028S-.336.2-.028-.11Z" transform="translate(645.81 3687.439)" fill="none" stroke="#203826" stroke-width="2"/></g></svg>