<svg xmlns="http://www.w3.org/2000/svg" width="33" height="33" viewBox="0 0 33 33" class="-rotate-12 translate-x-20 transition-all delay-100 duration-700" alpine="inView === index ? '-translate-y-10':'translate-y-32'"><path id="Cog" d="M-1637,710a2.8,2.8,0,0,1-2.792-2.2,2.87,2.87,0,0,0-2.8-2.2,2.864,2.864,0,0,0-1.49.422,2.864,2.864,0,0,1-1.5.439,2.952,2.952,0,0,1-2.518-1.514,2.778,2.778,0,0,1,.074-2.874,2.844,2.844,0,0,0,.2-2.594,2.844,2.844,0,0,0-1.977-1.693A2.8,2.8,0,0,1-1652,695a2.8,2.8,0,0,1,2.2-2.791,2.844,2.844,0,0,0,1.977-1.693,2.845,2.845,0,0,0-.2-2.595,2.777,2.777,0,0,1-.074-2.873,2.953,2.953,0,0,1,2.519-1.514,2.863,2.863,0,0,1,1.5.438,2.864,2.864,0,0,0,1.49.422,2.87,2.87,0,0,0,2.8-2.2A2.8,2.8,0,0,1-1637,680a2.8,2.8,0,0,1,2.793,2.2,2.87,2.87,0,0,0,2.8,2.2,2.866,2.866,0,0,0,1.49-.422,2.862,2.862,0,0,1,1.5-.438,2.952,2.952,0,0,1,2.519,1.515,2.776,2.776,0,0,1-.075,2.873,2.845,2.845,0,0,0-.2,2.595,2.845,2.845,0,0,0,1.977,1.693A2.8,2.8,0,0,1-1622,695a2.8,2.8,0,0,1-2.2,2.793,2.845,2.845,0,0,0-1.977,1.693,2.844,2.844,0,0,0,.2,2.594,2.777,2.777,0,0,1,.075,2.874,2.953,2.953,0,0,1-2.519,1.514,2.861,2.861,0,0,1-1.5-.439,2.866,2.866,0,0,0-1.49-.422,2.87,2.87,0,0,0-2.8,2.2A2.8,2.8,0,0,1-1637,710Zm0-18a3,3,0,0,0-3,3,3,3,0,0,0,3,3,3,3,0,0,0,3-3A3,3,0,0,0-1637,692Z" transform="translate(1653.5 -678.5)" fill="none" stroke="#63bc1e" stroke-linecap="round" stroke-linejoin="round" stroke-width="3"/></svg>