<svg xmlns="http://www.w3.org/2000/svg" width="33" height="33" viewBox="0 0 33 33" class="-rotate-12 translate-x-20 transition-all delay-300 duration-700" alpine="inView === index ? '-translate-y-16':'translate-y-32'"><path id="Dollar" d="M18,11.333c-2.762,0-5,1.492-5,3.333S15.238,18,18,18s5,1.492,5,3.333-2.239,3.333-5,3.333m0-13.333A5.79,5.79,0,0,1,22.331,13M18,11.333V9.667m0,1.667V24.667m0,0v1.667m0-1.667A5.789,5.789,0,0,1,13.669,23M33,18A15,15,0,1,1,18,3,15,15,0,0,1,33,18Z" transform="translate(-1.5 -1.5)" fill="none" stroke="#63bc1e" stroke-linecap="round" stroke-linejoin="round" stroke-width="3"/></svg>