<svg xmlns="http://www.w3.org/2000/svg" xmlns:xlink="http://www.w3.org/1999/xlink" width="83.011" height="56.355" viewBox="0 0 83.011 56.355"><defs><linearGradient id="linear-gradient" x1="0.5" x2="0.5" y2="1" gradientUnits="objectBoundingBox"><stop offset="0" stop-color="#bff27d"/><stop offset="1" stop-color="#63bc1e"/></linearGradient></defs><g id="Group_195" data-name="Group 195" transform="translate(-594.403 -4198.463)"><path id="Path_548" data-name="Path 548" d="M3.561,17.039A8.2,8.2,0,0,0,8.379,8.478C7.807,1.985,1.412,0,1.412,0L0,8.674Z" transform="translate(667.939 4213.375) rotate(7)" fill="none" stroke="#203826" stroke-linecap="round" stroke-linejoin="round" stroke-width="2"/><path id="Path_552" data-name="Path 552" d="M0-5.1S49.027-18.519,50.56-16.986,52.608-5.7,52.608,5.5,52.417,26.728,50.56,27.8,0,17.048,0,17.048Z" transform="translate(616.61 4216.399)" fill="#fff"/><path id="Path_545" data-name="Path 545" d="M.774,8.25s49.759,8.725,51.292,10.258.351,4.9-1.507,5.971S0,13.727,0,13.727Z" transform="translate(616.61 4219.72)" fill="#c7cdc9"/><path id="Path_550" data-name="Path 550" d="M-.342-9.5c.546-1.012,7.776-2.487,8.291-1.533,0,0,1.123,9.963,1.123,20.43S7.949,30.84,7.949,30.84c-.591,1.094-7.608.151-8.291-1.113C-.681,29.1.771,19.207.771,9.4S-.617-8.986-.342-9.5Z" transform="translate(651.852 4211.374)" fill="url(#linear-gradient)"/><path id="Path_551" data-name="Path 551" d="M0-5.1S49.027-18.519,50.56-16.986,52.608-5.7,52.608,5.5,52.417,26.728,50.56,27.8,0,17.048,0,17.048Z" transform="translate(616.61 4216.399)" fill="none" stroke="#203826" stroke-width="2"/><path id="Path_549" data-name="Path 549" d="M.395-.188c1.361-.636,19.37-.6,20.653,0s1.472,15.778,0,16.466-18.952.8-20.653,0S-.966.448.395-.188Z" transform="translate(596.161 4214.534)" fill="#fff" stroke="#203826" stroke-width="2"/><path id="Path_546" data-name="Path 546" d="M.042,0H8.6s.9,16.783,0,17.6-7.746.741-8.563,0S.042,0,.042,0Z" transform="translate(605.477 4235.638)" fill="#fff" stroke="#203826" stroke-linejoin="round" stroke-width="2"/><path id="Path_547" data-name="Path 547" d="M.1.085c1.012-1.012,14.395-.954,15.348,0s1.094,25.079,0,26.173S1.363,27.522.1,26.258-.912,1.1.1.085Z" transform="translate(602.027 4209.38)" fill="#fff" stroke="#203826" stroke-width="2"/></g></svg>