<svg xmlns="http://www.w3.org/2000/svg" width="66.021" height="69.506" viewBox="0 0 66.021 69.506"><g id="Group_143" data-name="Group 143" transform="translate(1 0.998)"><g id="Group_132" data-name="Group 132" transform="translate(0 0)"><path id="Path_277" data-name="Path 277" d="M-.608-.651c.225-.344,32.841-.606,33.237,0a9.479,9.479,0,0,1,0,4.294c-.258.228-32.967.413-33.237,0A12.518,12.518,0,0,1-.608-.651Z" transform="translate(20.138 53.934)" fill="#fff" stroke="#203826" stroke-linecap="round" stroke-width="2"/><path id="Path_278" data-name="Path 278" d="M-.608-.651c.225-.344,32.841-.606,33.237,0a9.479,9.479,0,0,1,0,4.294c-.258.228-32.967.413-33.237,0A12.518,12.518,0,0,1-.608-.651Z" transform="translate(20.606 49.032)" fill="#fff" stroke="#203826" stroke-linecap="round" stroke-width="2"/><path id="Path_279" data-name="Path 279" d="M-.608-.651c.225-.344,32.841-.606,33.237,0a9.479,9.479,0,0,1,0,4.294c-.258.228-32.967.413-33.237,0A12.518,12.518,0,0,1-.608-.651Z" transform="translate(20.372 44.13)" fill="#fff" stroke="#203826" stroke-linecap="round" stroke-width="2"/><path id="Path_280" data-name="Path 280" d="M-.608-.651c.225-.344,32.841-.606,33.237,0a9.479,9.479,0,0,1,0,4.294c-.258.228-32.967.413-33.237,0A12.518,12.518,0,0,1-.608-.651Z" transform="translate(19.904 39.478)" fill="#fff" stroke="#203826" stroke-linecap="round" stroke-width="2"/><path id="Path_281" data-name="Path 281" d="M-.608-.651c.225-.344,32.841-.606,33.237,0a9.479,9.479,0,0,1,0,4.294c-.258.228-32.967.413-33.237,0A12.518,12.518,0,0,1-.608-.651Z" transform="translate(19.904 34.827)" fill="#fff" stroke="#203826" stroke-linecap="round" stroke-width="2"/><path id="Path_282" data-name="Path 282" d="M.186.363c.225-.344,32.841-.606,33.237,0a9.479,9.479,0,0,1,0,4.294c-.258.228-32.967.413-33.237,0A12.518,12.518,0,0,1,.186.363Z" transform="translate(52.313 14.705) rotate(180)" fill="#fff" stroke="#203826" stroke-linecap="round" stroke-width="2"/><path id="Path_283" data-name="Path 283" d="M.186.363c.225-.344,32.841-.606,33.237,0a9.479,9.479,0,0,1,0,4.294c-.258.228-32.967.413-33.237,0A12.518,12.518,0,0,1,.186.363Z" transform="translate(51.845 19.607) rotate(180)" fill="#fff" stroke="#203826" stroke-linecap="round" stroke-width="2"/><path id="Path_284" data-name="Path 284" d="M.186.363c.225-.344,32.841-.606,33.237,0a9.479,9.479,0,0,1,0,4.294c-.258.228-32.967.413-33.237,0A12.518,12.518,0,0,1,.186.363Z" transform="translate(52.079 24.509) rotate(180)" fill="#fff" stroke="#203826" stroke-linecap="round" stroke-width="2"/><path id="Path_285" data-name="Path 285" d="M.186.363c.225-.344,32.841-.606,33.237,0a9.479,9.479,0,0,1,0,4.294c-.258.228-32.967.413-33.237,0A12.518,12.518,0,0,1,.186.363Z" transform="translate(52.781 29.161) rotate(180)" fill="#fff" stroke="#203826" stroke-linecap="round" stroke-width="2"/><path id="Path_286" data-name="Path 286" d="M.186.363c.225-.344,32.841-.606,33.237,0a9.479,9.479,0,0,1,0,4.294c-.258.228-32.967.413-33.237,0A12.518,12.518,0,0,1,.186.363Z" transform="translate(52.547 33.813) rotate(180)" fill="#fff" stroke="#203826" stroke-linecap="round" stroke-width="2"/><path id="Path_287" data-name="Path 287" d="M-.608-.651c.225-.344,32.841-.606,33.237,0a9.479,9.479,0,0,1,0,4.294c-.258.228-32.967.413-33.237,0A12.518,12.518,0,0,1-.608-.651Z" transform="translate(19.347 5.915)" fill="#fff" stroke="#203826" stroke-linecap="round" stroke-width="2"/><path id="Path_288" data-name="Path 288" d="M-.608-.651c.225-.344,32.841-.606,33.237,0a9.479,9.479,0,0,1,0,4.294c-.258.228-32.967.413-33.237,0A12.518,12.518,0,0,1-.608-.651Z" transform="translate(19.023 1.013)" fill="#fff" stroke="#203826" stroke-linecap="round" stroke-width="2"/><path id="Path_333" data-name="Path 333" d="M-.262.129,4.395.486,6.277,38.147H.72Z" transform="translate(47.277 0.084)" fill="#203826" opacity="0.25"/><path id="Path_312" data-name="Path 312" d="M-.608-.651c.225-.344,32.841-.606,33.237,0a9.479,9.479,0,0,1,0,4.294c-.258.228-32.967.413-33.237,0A12.518,12.518,0,0,1-.608-.651Z" transform="translate(1.73 61.621)" fill="#fff" stroke="#203826" stroke-linecap="round" stroke-width="2"/><path id="Path_313" data-name="Path 313" d="M.186.363c.225-.344,32.841-.606,33.237,0a9.479,9.479,0,0,1,0,4.294c-.258.228-32.967.413-33.237,0A12.518,12.518,0,0,1,.186.363Z" transform="translate(34.139 41.5) rotate(180)" fill="#fff" stroke="#203826" stroke-linecap="round" stroke-width="2"/><path id="Path_314" data-name="Path 314" d="M.186.363c.225-.344,32.841-.606,33.237,0a9.479,9.479,0,0,1,0,4.294c-.258.228-32.967.413-33.237,0A12.518,12.518,0,0,1,.186.363Z" transform="translate(33.671 46.402) rotate(180)" fill="#fff" stroke="#203826" stroke-linecap="round" stroke-width="2"/><path id="Path_315" data-name="Path 315" d="M.186.363c.225-.344,32.841-.606,33.237,0a9.479,9.479,0,0,1,0,4.294c-.258.228-32.967.413-33.237,0A12.518,12.518,0,0,1,.186.363Z" transform="translate(33.905 51.304) rotate(180)" fill="#fff" stroke="#203826" stroke-linecap="round" stroke-width="2"/><path id="Path_316" data-name="Path 316" d="M.186.363c.225-.344,32.841-.606,33.237,0a9.479,9.479,0,0,1,0,4.294c-.258.228-32.967.413-33.237,0A12.518,12.518,0,0,1,.186.363Z" transform="translate(34.607 55.956) rotate(180)" fill="#fff" stroke="#203826" stroke-linecap="round" stroke-width="2"/><path id="Path_317" data-name="Path 317" d="M.186.363c.225-.344,32.841-.606,33.237,0a9.479,9.479,0,0,1,0,4.294c-.258.228-32.967.413-33.237,0A12.518,12.518,0,0,1,.186.363Z" transform="translate(34.373 60.608) rotate(180)" fill="#fff" stroke="#203826" stroke-linecap="round" stroke-width="2"/><path id="Path_318" data-name="Path 318" d="M-.608-.651c.225-.344,32.841-.606,33.237,0a9.479,9.479,0,0,1,0,4.294c-.258.228-32.967.413-33.237,0A12.518,12.518,0,0,1-.608-.651Z" transform="translate(1.173 32.71)" fill="#fff" stroke="#203826" stroke-linecap="round" stroke-width="2"/><path id="Path_319" data-name="Path 319" d="M-.608-.651c.225-.344,32.841-.606,33.237,0a9.479,9.479,0,0,1,0,4.294c-.258.228-32.967.413-33.237,0A12.518,12.518,0,0,1-.608-.651Z" transform="translate(0.85 27.808)" fill="#fff" stroke="#203826" stroke-linecap="round" stroke-width="2"/><path id="Path_326" data-name="Path 326" d="M-.262.129,4.395.5,6.277,39.464H.72Z" transform="translate(28.692 25.258)" fill="#203826" opacity="0.25"/><path id="Path_301" data-name="Path 301" d="M-.608-.651c.225-.344,32.841-.606,33.237,0a9.479,9.479,0,0,1,0,4.294c-.258.228-32.967.413-33.237,0A12.518,12.518,0,0,1-.608-.651Z" transform="translate(31.144 63.622)" fill="#fff" stroke="#203826" stroke-linecap="round" stroke-width="2"/><path id="Path_304" data-name="Path 304" d="M.186.363c.225-.344,32.841-.606,33.237,0a9.479,9.479,0,0,1,0,4.294c-.258.228-32.967.413-33.237,0A12.518,12.518,0,0,1,.186.363Z" transform="translate(63.318 53.304) rotate(180)" fill="#fff" stroke="#203826" stroke-linecap="round" stroke-width="2"/><path id="Path_305" data-name="Path 305" d="M.186.363c.225-.344,32.841-.606,33.237,0a9.479,9.479,0,0,1,0,4.294c-.258.228-32.967.413-33.237,0A12.518,12.518,0,0,1,.186.363Z" transform="translate(64.02 57.956) rotate(180)" fill="#fff" stroke="#203826" stroke-linecap="round" stroke-width="2"/><path id="Path_306" data-name="Path 306" d="M.186.363c.225-.344,32.841-.606,33.237,0a9.479,9.479,0,0,1,0,4.294c-.258.228-32.967.413-33.237,0A12.518,12.518,0,0,1,.186.363Z" transform="translate(63.786 62.608) rotate(180)" fill="#fff" stroke="#203826" stroke-linecap="round" stroke-width="2"/><path id="Path_335" data-name="Path 335" d="M.186.363c.225-.344,32.841-.606,33.237,0a9.479,9.479,0,0,1,0,4.294c-.258.228-32.967.413-33.237,0A12.518,12.518,0,0,1,.186.363Z" transform="translate(62.967 43.751) rotate(180)" fill="#fff" stroke="#203826" stroke-linecap="round" stroke-width="2"/><path id="Path_336" data-name="Path 336" d="M.186.363c.225-.344,32.841-.606,33.237,0a9.479,9.479,0,0,1,0,4.294c-.258.228-32.967.413-33.237,0A12.518,12.518,0,0,1,.186.363Z" transform="translate(63.669 48.403) rotate(180)" fill="#fff" stroke="#203826" stroke-linecap="round" stroke-width="2"/><path id="Path_334" data-name="Path 334" d="M-.222-6.594l4.656.211L6.274,21.773H.716Z" transform="translate(58.213 45.681)" fill="#203826" opacity="0.25"/></g></g></svg>