<svg xmlns="http://www.w3.org/2000/svg" xmlns:xlink="http://www.w3.org/1999/xlink" width="72.961" height="74.672" viewBox="0 0 72.961 74.672"><defs><linearGradient id="linear-gradient" x1="0.5" x2="0.5" y2="1" gradientUnits="objectBoundingBox"><stop offset="0" stop-color="#bff27d"/><stop offset="1" stop-color="#63bc1e"/></linearGradient></defs><g id="Group_133" data-name="Group 133" transform="translate(1.142 0)"><g id="Group_131" data-name="Group 131" transform="translate(6.298)"><g id="Union_11" data-name="Union 11" transform="translate(0 9)" fill="#fff"><path d="M 28.99980163574219 64.67210388183594 C 25.20978164672852 64.67210388183594 21.47103118896484 64.34770202636719 17.88741111755371 63.70792007446289 C 14.60746097564697 63.12235260009766 11.48620128631592 62.26483154296875 8.861081123352051 61.22807312011719 C 6.365041255950928 60.24230194091797 4.313271045684814 59.09701156616211 2.927561044692993 57.91603088378906 C 1.66654109954834 56.84131240844727 1.000001072883606 55.78345108032227 1.000001072883606 54.8568000793457 L 1.000001072883606 54.80235290527344 L 0.9940810799598694 54.74819183349609 C 0.9810810685157776 54.62909317016602 -0.3067989349365234 42.68202209472656 -0.3067989349365234 29.18430137634277 C -0.3067989349365234 17.56256294250488 0.647438645362854 4.521971225738525 0.9229339361190796 1.000001907348633 L 57.08562088012695 1.000001907348633 C 57.41604995727539 4.748965263366699 58.63490295410156 19.37620735168457 58.63490295410156 31.11300277709961 C 58.63490295410156 44.57829284667969 57.02884292602539 54.59635162353516 57.01262283325195 54.69597244262695 L 56.9996223449707 54.77581024169922 L 56.99959945678711 54.8568000793457 C 56.99959945678711 55.78345108032227 56.33306121826172 56.84131240844727 55.07204055786133 57.91603088378906 C 53.68633270263672 59.09701156616211 51.63455963134766 60.24230194091797 49.13851928710938 61.22807312011719 C 46.51340103149414 62.26483154296875 43.39213943481445 63.12235260009766 40.11219024658203 63.70792007446289 C 36.52857208251953 64.34770202636719 32.78982162475586 64.67210388183594 28.99980163574219 64.67210388183594 Z" stroke="none"/><path d="M 28.99980163574219 63.67210006713867 C 32.73105239868164 63.67210006713867 36.41067123413086 63.35294342041016 39.93643188476562 62.72348022460938 C 43.15195083618164 62.14942169189453 46.20696258544922 61.31069183349609 48.77120208740234 60.29798126220703 C 51.16601181030273 59.35218048095703 53.12051010131836 58.26533126831055 54.42338943481445 57.15494155883789 C 55.42510223388672 56.30123138427734 55.99959945678711 55.46359252929688 55.99959945678711 54.8568000793457 L 55.99966049194336 54.69483184814453 L 56.02560043334961 54.53534317016602 C 56.04170227050781 54.43639373779297 57.63490295410156 44.48632049560547 57.63490295410156 31.11300277709961 C 57.63490295410156 20.21377754211426 56.57900619506836 6.800777912139893 56.16862487792969 2.000001907348633 L 1.849124073982239 2.000001907348633 C 1.510804533958435 6.488405227661133 0.6932010650634766 18.44750595092773 0.6932010650634766 29.18430137634277 C 0.6932010650634766 42.62239074707031 1.975231051445007 54.52102279663086 1.988161087036133 54.63953018188477 L 2.000000953674316 54.74784088134766 L 2.000000953674316 54.8568000793457 C 2.000000953674316 55.46359252929688 2.574501037597656 56.30123138427734 3.576210975646973 57.15494155883789 C 4.879091262817383 58.26533126831055 6.833590984344482 59.35218048095703 9.228401184082031 60.29798126220703 C 11.79264068603516 61.31069183349609 14.84765148162842 62.14942169189453 18.06317138671875 62.72348022460938 C 21.58893013000488 63.35294342041016 25.26855087280273 63.67210006713867 28.99980163574219 63.67210006713867 M 28.99980163574219 65.67210388183594 C 12.98340129852295 65.67210388183594 1.055908228408953e-06 59.90670013427734 1.055908228408953e-06 54.8568000793457 C 1.055908228408953e-06 54.8568000793457 -1.306798934936523 42.89850234985352 -1.306798934936523 29.18430137634277 C -1.306798934936523 15.46920204162598 1.055908228408953e-06 1.940918082254939e-06 1.055908228408953e-06 1.940918082254939e-06 L 57.99959945678711 1.940918082254939e-06 C 57.99959945678711 1.940918082254939e-06 59.63490295410156 17.39880180358887 59.63490295410156 31.11300277709961 C 59.63490295410156 44.82720184326172 57.99959945678711 54.8568000793457 57.99959945678711 54.8568000793457 C 57.99959945678711 59.90670013427734 45.01620101928711 65.67210388183594 28.99980163574219 65.67210388183594 Z" stroke="none" fill="#203826"/></g><g id="Ellipse_15" data-name="Ellipse 15" transform="translate(0 0)" fill="#fff" stroke="#203826" stroke-width="2"><ellipse cx="29" cy="9" rx="29" ry="9" stroke="none"/><ellipse cx="29" cy="9" rx="28" ry="8" fill="none"/></g><path id="Intersection_1" data-name="Intersection 1" d="M0,3.977C3.439,1.66,12.72,0,23.629,0s20.19,1.66,23.629,3.977c-3.439,2.317-12.72,3.977-23.629,3.977S3.439,6.294,0,3.977Z" transform="translate(5.767 5.982)" fill="url(#linear-gradient)"/><g id="Ellipse_17" data-name="Ellipse 17" transform="translate(4 3)" fill="none" stroke="#203826" stroke-width="2"><ellipse cx="25" cy="6" rx="25" ry="6" stroke="none"/><ellipse cx="25" cy="6" rx="24" ry="5" fill="none"/></g><path id="Subtraction_16" data-name="Subtraction 16" d="M0,0A85.249,85.249,0,0,0,17.919,2.212,87.79,87.79,0,0,0,36,0V28.738S32.208,32,18.421,32,0,28.738,0,28.738Z" transform="translate(11 25)" fill="#fff" stroke="#203826" stroke-linejoin="round" stroke-width="2"/><path id="Subtraction_17" data-name="Subtraction 17" d="M0,0A60.394,60.394,0,0,0,11.946,1.383,62.2,62.2,0,0,0,24,0V17.961S21.472,20,12.281,20,0,17.961,0,17.961Z" transform="translate(17 31)" fill="#fff" stroke="#203826" stroke-linejoin="round" stroke-width="2"/><path id="Union_16" data-name="Union 16" d="M0,0A85.2,85.2,0,0,0,17.919,2.213,87.738,87.738,0,0,0,36,0V3.736S32.208,7,18.421,7,0,3.736,0,3.736Z" transform="translate(11 59)" fill="#fff" stroke="#203826" stroke-linejoin="round" stroke-width="2"/></g><path id="Path_330" data-name="Path 330" d="M2725.725,2050.314v54.28s4.138-1.032,5.372-2.879a26.989,26.989,0,0,1,1.676-2.349v-52.89a23.037,23.037,0,0,1-3.665,2.128C2726.928,2049.624,2725.725,2050.314,2725.725,2050.314Z" transform="translate(-2669.221 -2036)" fill="#203826" opacity="0.25"/><path id="Path_332" data-name="Path 332" d="M64.622,0H69.8s7.126,29.1-34.679,29.092S-.023,0-.023,0H4.719" transform="translate(0.413 15.403)" fill="none" stroke="#203826" stroke-linejoin="round" stroke-width="2"/><g id="Rectangle_57" data-name="Rectangle 57" transform="translate(2.298 11)" fill="#fff" stroke="#203826" stroke-linejoin="round" stroke-width="2"><rect width="6" height="8" stroke="none"/><rect x="1" y="1" width="4" height="6" fill="none"/></g><g id="Rectangle_58" data-name="Rectangle 58" transform="translate(62.298 11)" fill="#fff" stroke="#203826" stroke-linejoin="round" stroke-width="2"><rect width="6" height="8" stroke="none"/><rect x="1" y="1" width="4" height="6" fill="none"/></g></g></svg>