<svg xmlns="http://www.w3.org/2000/svg" width="69.665" height="67.738" viewBox="0 0 69.665 67.738"><g id="Group_196" data-name="Group 196" transform="translate(-591.999 -3177.874)"><g id="Group_154" data-name="Group 154" transform="translate(593 3178.874)"><path id="Union_43" data-name="Union 43" d="M19.356,65.565c-1-.024-.364-12.459-1.307-12.485-.67-.02-1.2,3.017-1.716,6.053s-1.011,6.076-1.613,6.054c-5.6-.21-11.287-.485-11.864-.775C.546,63.247.653,58.174.035,47.305s6.956-15.268,17.9-15.271h9.2C21.024,29.9,18.1,24.557,18.6,18.374c.338-4.227,1.444-7.214,3.431-9.361-1.7-4.651,2.828-10.561,12.26-7.737C45.657,4.677,48.853,0,48.853,0s-.727,5.2-4.3,8.42a14.618,14.618,0,0,1,4.5,9.954c.337,5.98-4.06,11.141-8.536,13.661,0,0,.747.833,9.2,0,8.9-.877,18.7,5.107,17.9,15.271,0,0,.292,13.95-1.323,16.568-.346.562-8.474.977-13.051,1.272-.4.025-.8-3.222-1.215-6.468s-.839-6.49-1.276-6.467c-.682.033.405,13.2-.321,13.232-5.107.209-10.8.3-16.526.3C28.952,65.738,23.983,65.673,19.356,65.565Z" transform="translate(0 0)" fill="#fff" stroke="#203826" stroke-linejoin="round" stroke-width="2"/><path id="Path_37" data-name="Path 37" d="M33.591,61.919c-3.083,0-9.09-6.966-9.09-9.09s2.513-4.3,4.19-4.19,3.036,5.655,5.125,6.017,12.259-13.2,14.517-13.2a4.6,4.6,0,0,1,3.554,2.095c-3.288,5.873-15.213,18.37-18.3,18.37" transform="translate(-3.037 -2.845)" fill="#74cf33"/></g><path id="Path_406" data-name="Path 406" d="M2887.494,2509.115l-3.563,3.08s7.78,4.837,3.563,12.312-4.562,9.4-4.562,9.4,9.195-5,9.155-13.441S2887.494,2509.115,2887.494,2509.115Z" transform="translate(-2250 677.652)" fill="#203826" opacity="0.25"/><path id="Path_407" data-name="Path 407" d="M2898.831,2534.09s6.992,5.034,7.249,10.647,0,20.883,0,20.883h2.6s3-4.656,2.122-14.624-1.208-11.238-4.083-13.535S2898.831,2534.09,2898.831,2534.09Z" transform="translate(-2250 677.652)" fill="#203826" opacity="0.25"/><path id="Path_408" data-name="Path 408" d="M2869.238,2532.924s2.159,1.775,6.547,1.784a30.88,30.88,0,0,0,9.211-1.784s-2.559,5.783-7.441,5.783S2869.238,2532.924,2869.238,2532.924Z" transform="translate(-2250 677.652)" fill="#203826" opacity="0.25"/></g></svg>